<?xml version="1.0" encoding="UTF-8" standalone="no"?>
<svg
   xmlns:dc="http://purl.org/dc/elements/1.1/"
   xmlns:cc="http://creativecommons.org/ns#"
   xmlns:rdf="http://www.w3.org/1999/02/22-rdf-syntax-ns#"
   xmlns:svg="http://www.w3.org/2000/svg"
   xmlns="http://www.w3.org/2000/svg"
   xmlns:sodipodi="http://sodipodi.sourceforge.net/DTD/sodipodi-0.dtd"
   xmlns:inkscape="http://www.inkscape.org/namespaces/inkscape"
   version="1.1"
   id="svg5472"
   width="1024"
   height="1024"
   viewBox="0 0 1024 1024"
   sodipodi:docname="fox-logo-white.svg"
   inkscape:version="0.92.5 (2060ec1f9f, 2020-04-08)">
  <metadata
     id="metadata5478">
    <rdf:RDF>
      <cc:Work
         rdf:about="">
        <dc:format>image/svg+xml</dc:format>
        <dc:type
           rdf:resource="http://purl.org/dc/dcmitype/StillImage" />
        <dc:title></dc:title>
      </cc:Work>
    </rdf:RDF>
  </metadata>
  <defs
     id="defs5476" />
  <sodipodi:namedview
     pagecolor="#ffffff"
     bordercolor="#666666"
     borderopacity="1"
     objecttolerance="10"
     gridtolerance="10"
     guidetolerance="10"
     inkscape:pageopacity="0"
     inkscape:pageshadow="2"
     inkscape:window-width="1366"
     inkscape:window-height="704"
     id="namedview5474"
     showgrid="false"
     inkscape:zoom="0.32593203"
     inkscape:cx="-158.20182"
     inkscape:cy="547.25522"
     inkscape:window-x="0"
     inkscape:window-y="27"
     inkscape:window-maximized="1"
     inkscape:current-layer="svg5472" />
  <g
     id="g18"
     style="fill:#393E46;fill-opacity:1">
    <path
       inkscape:connector-curvature="0"
       id="path5518"
       d="m 500.4276,285.08648 c -1.8611,-0.0492 -3.72878,0.16302 -5.54958,0.66889 -1.8208,0.50584 -3.59521,1.30549 -5.27416,2.42708 -2.00613,1.34016 -3.74451,2.82277 -5.21633,4.40646 -1.47183,1.58369 -2.677,3.26862 -3.61894,5.01799 -0.94193,1.74938 -1.62161,3.56301 -2.03805,5.40022 -0.41645,1.83721 -0.57007,3.69773 -0.46546,5.54492 0.10463,1.8472 0.46936,3.68096 1.09064,5.46029 0.62129,1.77933 1.49941,3.50452 2.63296,5.13812 1.13354,1.63361 2.5201,3.17388 4.16149,4.58391 1.64139,1.41003 3.53695,2.68903 5.68178,3.79764 1.42543,0.73675 2.82555,1.27753 4.22759,1.62169 1.40205,0.34416 2.806,0.49272 4.24137,0.44229 1.43536,-0.0505 2.90052,-0.29831 4.42589,-0.74534 1.52537,-0.44701 3.11185,-1.0928 4.78394,-1.93839 1.80139,-0.91101 3.49936,-2.114 5.0373,-3.51643 1.53794,-1.40243 2.91379,-3.00548 4.06786,-4.72041 1.15407,-1.71494 2.08782,-3.54079 2.7376,-5.3893 0.6498,-1.84852 1.01596,-3.71991 1.04107,-5.52307 0.0293,-2.10663 -0.25086,-4.13197 -0.79044,-6.04728 -0.53959,-1.91529 -1.3368,-3.72047 -2.34376,-5.38383 -1.00697,-1.66335 -2.2241,-3.18399 -3.5969,-4.53477 -1.37281,-1.35077 -2.90171,-2.53066 -4.53881,-3.50822 -1.63712,-0.97756 -3.38066,-1.75234 -5.18053,-2.29605 -1.79987,-0.54372 -3.65543,-0.85717 -5.51653,-0.90641 z"
       style="fill:#393E46;fill-opacity:1;stroke:#000000;stroke-width:0;stroke-miterlimit:4;stroke-dasharray:none;stroke-opacity:1" />
    <path
       inkscape:connector-curvature="0"
       id="path5512"
       d="m 788.56354,251.274 c -0.71916,-0.15323 -1.34982,-0.12805 -1.88934,0.0765 -0.53951,0.20449 -0.9876,0.58762 -1.34126,1.15485 -0.25723,0.41259 0.477,2.65017 1.87005,5.91895 1.39307,3.26877 3.44314,7.56944 5.81398,12.11637 2.98976,5.73388 5.71802,11.63271 8.17978,17.6722 2.46176,6.0395 4.65744,12.21886 6.58513,18.51583 1.9277,6.29695 3.5864,12.71116 4.97397,19.21747 1.38756,6.50629 2.50492,13.10689 3.34626,19.77441 0.84136,6.66752 1.4075,13.40334 1.69656,20.18393 0.28906,6.78061 0.29959,13.60594 0.0303,20.45149 -0.26929,6.84555 -0.81874,13.71198 -1.65247,20.57435 -0.83373,6.86237 -1.9503,13.71872 -3.35454,20.54977 -1.01767,4.95062 -2.20424,9.85941 -3.55558,14.71548 -1.35136,4.85607 -2.8676,9.66074 -4.54157,14.40968 -1.67397,4.74894 -3.50622,9.44191 -5.49174,14.07115 -1.98552,4.62925 -4.12561,9.19471 -6.41162,13.69166 -2.28601,4.49695 -4.7175,8.92459 -7.29295,13.27669 -2.57544,4.35208 -5.2929,8.62883 -8.14672,12.82346 -2.85383,4.19464 -5.84633,8.30746 -8.96747,12.33206 -3.12112,4.02459 -6.37224,7.96041 -9.74963,11.8024 -3.37737,3.84198 -6.87894,7.59047 -10.5015,11.23726 -3.62258,3.64679 -7.36641,7.19217 -11.2231,10.63117 -3.8567,3.43902 -7.82634,6.77093 -11.90612,9.9896 -4.07976,3.21865 -8.26983,6.32407 -12.5616,9.30977 -4.29177,2.98572 -8.68581,5.85158 -13.17852,8.59177 -4.49273,2.74017 -9.08255,5.35343 -13.76516,7.83549 -4.68262,2.48208 -9.4573,4.83239 -14.31875,7.04378 -4.86143,2.21138 -9.81006,4.28568 -14.83927,6.2138 -7.36786,2.82471 -31.16357,11.09307 -52.87936,18.37385 -16.23595,5.44352 -29.30253,9.89766 -40.19382,13.77902 -10.8913,3.88136 -19.60827,7.189 -27.14199,10.33905 -7.53371,3.15005 -13.88411,6.14209 -20.04734,9.39169 -6.16321,3.2496 -12.13833,6.75694 -18.91813,10.93695 -7.05371,4.34887 -13.95187,9.17001 -20.63673,14.38784 -6.68484,5.21784 -13.15693,10.83248 -19.36156,16.76307 -6.20461,5.9306 -12.14008,12.17882 -17.75314,18.66598 -5.61305,6.48716 -10.90412,13.21177 -15.81423,20.0993 -4.91012,6.88754 -9.44072,13.93679 -13.53656,21.06851 -4.09585,7.13171 -7.75543,14.34569 -10.92565,21.56538 -1.58511,3.60985 -3.049,7.22246 -4.38183,10.82501 -1.33282,3.60257 -2.53578,7.1974 -3.60241,10.77315 -1.06662,3.57574 -1.99517,7.1318 -2.78168,10.6612 -0.78649,3.5294 -1.42993,7.03113 -1.92238,10.49466 l -0.81798,5.75242 10.91464,4.58936 c 6.0031,2.52378 16.59763,6.62128 23.54508,9.10502 l 12.63321,4.51566 2.42089,-9.45448 c 1.33225,-5.20036 5.03142,-16.07201 8.22108,-24.15903 2.57924,-6.53938 5.49756,-12.87419 8.76916,-19.02909 3.27161,-6.15488 6.89699,-12.13165 10.89811,-17.95614 4.00112,-5.82448 8.37766,-11.49606 13.14549,-17.04427 4.76781,-5.54821 9.92857,-10.97292 15.50025,-16.29895 4.11889,-3.93728 8.0634,-7.56534 11.94468,-10.94787 3.88128,-3.38253 7.69915,-6.52008 11.56461,-9.46812 3.86545,-2.94806 7.77687,-5.70675 11.84827,-8.34059 4.07142,-2.63383 8.30208,-5.1417 12.80122,-7.5816 4.49915,-2.43991 9.26647,-4.81404 14.41513,-7.18028 5.14867,-2.36623 10.67836,-4.72373 16.69831,-7.13659 12.03993,-4.82569 26.04535,-9.86625 42.90114,-15.60002 27.04245,-9.19894 43.74522,-15.00333 56.20085,-19.71709 6.22781,-2.35688 11.39302,-4.44164 16.25764,-6.54142 4.86462,-2.09978 9.42993,-4.21272 14.45369,-6.63151 8.38722,-4.03819 15.95046,-7.99784 23.02456,-12.12182 7.07411,-4.124 13.65967,-8.41223 20.08865,-13.11015 6.42899,-4.69792 12.70038,-9.80728 19.15224,-15.56727 6.45187,-5.75999 13.08361,-12.17209 20.22635,-19.48229 6.79956,-6.95896 13.11218,-13.999 18.95671,-21.14768 5.84453,-7.14867 11.22102,-14.40633 16.14748,-21.80018 4.92646,-7.39385 9.4031,-14.92476 13.44843,-22.61922 4.04534,-7.69447 7.65841,-15.55153 10.85956,-23.60208 1.97371,-4.96366 3.78409,-9.90175 5.4284,-14.81374 1.64429,-4.912 3.12232,-9.79843 4.4369,-14.66086 1.31458,-4.86243 2.46363,-9.7012 3.44817,-14.51617 0.98456,-4.81498 1.80523,-9.60729 2.45944,-14.37692 0.65423,-4.76964 1.14438,-9.51675 1.46796,-14.24316 0.32357,-4.72641 0.48109,-9.42954 0.47372,-14.11482 -0.007,-4.6853 -0.18191,-9.35117 -0.52053,-13.99745 -0.33864,-4.64627 -0.84183,-9.27337 -1.51203,-13.88277 -0.6702,-4.60938 -1.50695,-9.20169 -2.50902,-13.7763 -1.00206,-4.5746 -2.16901,-9.13334 -3.50325,-13.67527 -1.33424,-4.54194 -2.83629,-9.06836 -4.50301,-13.57972 -1.66673,-4.51138 -3.49774,-9.00671 -5.49725,-13.48963 -1.99952,-4.48293 -4.16715,-8.95115 -6.49975,-13.40773 -2.33261,-4.45658 -4.83073,-8.90165 -7.49676,-13.33401 -2.66602,-4.43236 -5.49952,-8.85278 -8.49925,-13.26302 -2.99972,-4.41025 -6.16527,-8.81 -9.49901,-13.20024 -3.33235,-4.38843 -6.38737,-8.12567 -9.13821,-11.19359 -2.75086,-3.06791 -5.19824,-5.46754 -7.31773,-7.17481 -2.1195,-1.70727 -3.91021,-2.72397 -5.34853,-3.03046 z"
       style="fill:#393E46;fill-opacity:1;stroke:#000000;stroke-width:0;stroke-miterlimit:4;stroke-dasharray:none;stroke-opacity:1" />
    <path
       inkscape:connector-curvature="0"
       id="path5524"
       d="m 888.23563,462.40951 c -0.28592,0.28343 -1.5113,7.06223 -2.72384,15.06492 -0.98964,6.53146 -2.2085,13.02085 -3.64923,19.45499 -1.44073,6.43414 -3.10459,12.81302 -4.98498,19.12464 -1.88038,6.31162 -3.97636,12.55668 -6.28494,18.72059 -2.30855,6.16389 -4.82929,12.24906 -7.55458,18.24006 -2.72529,5.99102 -5.65514,11.88751 -8.78569,17.6804 -3.13054,5.7929 -6.46214,11.48014 -9.98648,17.04975 -3.52435,5.56959 -7.24205,11.02151 -11.14874,16.34261 -3.90668,5.32112 -8.00311,10.51166 -12.28067,15.55908 -2.91618,3.44102 -6.45042,7.2749 -10.3831,11.2946 -3.93265,4.01971 -8.26215,8.22441 -12.7654,12.40849 -4.50325,4.18409 -9.18131,8.34877 -13.80922,12.28291 -4.62791,3.93416 -9.20513,7.63976 -13.51178,10.90965 -3.57483,2.71424 -7.34042,5.40032 -11.29194,8.05938 -3.95154,2.65906 -8.08997,5.29023 -12.41564,7.89284 -8.65136,5.20523 -18.04774,10.29777 -28.18029,15.26968 -10.13254,4.9719 -21.00194,9.82315 -32.59517,14.55165 -11.59323,4.72852 -23.91054,9.334 -36.94395,13.80906 -6.77832,2.32736 -13.18911,4.64628 -19.27618,6.98097 -6.08706,2.3347 -11.85063,4.68441 -17.33176,7.07653 -5.48113,2.39214 -10.6802,4.82529 -15.64072,7.32498 -4.96052,2.49967 -9.68332,5.06623 -14.20857,7.72357 -4.52525,2.65733 -8.85451,5.40449 -13.02981,8.26959 -4.1753,2.86511 -8.19649,5.84828 -12.10718,8.97125 -3.91067,3.12296 -7.70926,6.38664 -11.44066,9.81759 -3.7314,3.43095 -7.39561,7.02778 -11.03306,10.81682 -4.37812,4.56058 -8.73465,9.66854 -12.86732,15.00759 -4.13265,5.33904 -8.04147,10.91063 -11.52603,16.39449 -3.48457,5.48388 -6.54463,10.88072 -8.97848,15.87579 -1.21693,2.49752 -2.27748,4.89371 -3.15624,7.15023 -0.87875,2.25652 -1.57535,4.37305 -2.06561,6.30936 l -0.96669,3.8222 h 29.52706 29.52706 l 4.70958,-7.33862 c 1.71044,-2.66547 4.3386,-5.94867 7.54632,-9.5282 3.20772,-3.57952 6.99532,-7.45446 11.02755,-11.30551 4.03223,-3.85106 8.30877,-7.67803 12.49275,-11.15809 4.18397,-3.48006 8.2762,-6.61393 11.93916,-9.08046 5.08213,-3.42214 9.49873,-6.26706 14.27193,-8.99855 4.7732,-2.73147 9.90227,-5.35109 16.41188,-8.32693 6.5096,-2.97581 14.39949,-6.30672 24.6908,-10.46189 10.29132,-4.15519 22.98482,-9.13393 39.10318,-15.40346 8.28614,-3.22305 15.87666,-6.30537 22.92817,-9.32343 7.05151,-3.01808 13.56433,-5.97101 19.69481,-8.93576 6.13047,-2.96476 11.87761,-5.94093 17.40061,-9.00401 5.52301,-3.06308 10.82198,-6.2124 16.05109,-9.52546 6.81722,-4.31926 11.31954,-7.02201 14.19481,-8.44706 1.43763,-0.71253 2.46884,-1.10662 3.17826,-1.2231 0.70943,-0.11644 1.09765,0.045 1.25038,0.43954 0.21713,0.56089 -0.004,1.47353 -0.6004,2.67828 -0.59674,1.20475 -1.5713,2.70116 -2.86154,4.42555 -2.58051,3.4488 -6.42533,7.81211 -11.05785,12.59415 -4.63251,4.78203 -10.05114,9.98169 -15.77292,15.10315 -5.72178,5.12146 -11.74785,10.16374 -17.59615,14.63082 -4.18974,3.20021 -8.24587,6.48438 -11.40487,9.19512 -3.159,2.71075 -5.42005,4.84795 -6.0233,5.7606 -0.63163,0.95561 -1.05024,1.83275 -1.28066,2.62367 -0.23043,0.79091 -0.27214,1.49673 -0.15148,2.10767 0.12071,0.61093 0.40187,1.12686 0.82348,1.54252 0.42161,0.41567 0.9828,0.73135 1.65524,0.93644 0.67244,0.2051 1.45686,0.30196 2.32999,0.28121 0.87313,-0.0208 1.8351,-0.15855 2.8588,-0.42044 2.04739,-0.52378 4.34643,-1.54592 6.69529,-3.12601 5.29935,-3.56492 11.04544,-7.88135 16.98475,-12.71428 5.9393,-4.83292 12.07157,-10.1818 18.14422,-15.81298 6.07265,-5.63119 12.08405,-11.54328 17.78344,-17.50294 5.69939,-5.95965 11.08557,-11.9685 15.90513,-17.78687 6.32678,-7.63797 12.30518,-15.46277 17.9294,-23.46284 5.62422,-8.00008 10.89437,-16.17505 15.80598,-24.51121 4.91159,-8.33615 9.46334,-16.83419 13.65224,-25.48041 4.18889,-8.64621 8.01483,-17.44019 11.47095,-26.37044 3.45613,-8.93024 6.54337,-17.99575 9.25666,-27.18402 2.71327,-9.18826 5.05165,-18.49816 7.01201,-27.91842 1.96037,-9.42026 3.54248,-18.95017 4.73987,-28.5764 1.19738,-9.62624 2.01031,-19.349 2.43465,-29.15519 0.38193,-8.82614 0.27835,-21.53363 -0.0881,-31.86621 -0.18324,-5.16629 -0.43163,-9.73712 -0.71882,-12.93541 -0.28718,-3.1983 -0.61175,-5.02314 -0.94742,-4.69038 z"
       style="opacity:1;fill:#393E46;fill-opacity:1;stroke:#000000;stroke-width:0;stroke-miterlimit:4;stroke-dasharray:none;stroke-opacity:0" />
    <path
       inkscape:connector-curvature="0"
       id="path5508"
       d="m 327.58771,196.5565 -10.20958,6.82809 c -4.29946,2.87597 -8.43851,5.79079 -12.49549,8.81016 -4.05699,3.01937 -8.03201,6.14325 -12.00251,9.43537 -3.97052,3.29212 -7.93495,6.75405 -11.97498,10.44825 -4.04004,3.69422 -8.15559,7.62044 -12.42114,11.84609 -6.85251,6.7884 -13.37788,13.76729 -19.57639,20.93472 -6.1985,7.16743 -12.06928,14.52351 -17.61542,22.0732 -5.54616,7.5497 -10.76731,15.29285 -15.66277,23.22805 -4.89544,7.93519 -9.46642,16.06441 -13.71283,24.38835 -4.24641,8.32394 -8.16663,16.84093 -11.76566,25.55687 -3.59901,8.71591 -6.87622,17.63058 -9.8295,26.74172 -2.95327,9.11116 -5.58416,18.41974 -7.89335,27.92935 -2.30919,9.50961 -4.29593,19.2193 -5.96269,29.13062 -0.86993,5.17302 -1.62014,11.2903 -2.23361,17.95067 -0.61347,6.6604 -1.09091,13.86271 -1.41287,21.21048 -0.32195,7.34776 -0.48933,14.84079 -0.48472,22.07592 0.004,7.23514 0.18185,14.2136 0.54807,20.53614 0.31524,5.44215 0.76061,10.86824 1.33301,16.27163 0.57238,5.40339 1.27054,10.78508 2.09588,16.14061 0.82534,5.35551 1.77645,10.6837 2.85054,15.98224 1.07407,5.29854 2.27278,10.56687 3.59138,15.79934 1.31861,5.23245 2.75681,10.4291 4.31573,15.58638 1.55893,5.15727 3.23952,10.27587 5.03455,15.34884 1.79504,5.07299 3.70442,10.09899 5.73137,15.07857 2.02693,4.9796 4.17075,9.91211 6.42539,14.78918 2.25462,4.8771 4.62204,9.69882 7.10015,14.4643 2.47812,4.76548 5.06652,9.47279 7.7639,14.11756 2.6974,4.64476 5.50418,9.22859 8.41663,13.74354 2.91245,4.51494 5.92952,8.96344 9.05283,13.33947 3.12331,4.37603 6.35083,8.68011 9.68079,12.9081 3.32995,4.228 6.76255,8.37858 10.29495,12.44945 3.53238,4.07086 7.16473,8.06159 10.89535,11.96621 3.73062,3.90463 7.5601,7.72367 11.48473,11.45295 6.94061,6.59511 16.41893,14.77183 24.3796,21.23777 3.98032,3.23297 7.58122,6.04002 10.29495,8.00477 2.71371,1.96476 4.54127,3.08961 4.97396,2.96221 0.33874,-0.0998 0.98862,-1.36437 1.76265,-3.31986 0.77402,-1.95548 1.67335,-4.60246 2.50901,-7.46966 1.67133,-5.73442 4.52974,-14.06548 6.35379,-18.51309 l 3.31597,-8.08669 -16.07312,-16.37538 c -9.17422,-9.34577 -15.70393,-16.25793 -21.17377,-22.57008 -5.46986,-6.31216 -9.87983,-12.02418 -14.82,-18.96629 -4.189,-5.88655 -8.15718,-11.79262 -11.90337,-17.72409 -3.74617,-5.93146 -7.27088,-11.88957 -10.57862,-17.87696 -3.30774,-5.98739 -6.39673,-12.00555 -9.27042,-18.05988 -2.87369,-6.05435 -5.53192,-12.14326 -7.97597,-18.27557 -2.44402,-6.13234 -4.67376,-12.30816 -6.69254,-18.52948 -2.01877,-6.22132 -3.82774,-12.48934 -5.42564,-18.81067 -1.5979,-6.32135 -2.98557,-12.695 -4.167,-19.12738 -1.18143,-6.43238 -2.15554,-12.92239 -2.92489,-19.47683 -1.13836,-9.69826 -1.85186,-19.41248 -2.14547,-29.10877 -0.29362,-9.69629 -0.16902,-19.37632 0.3663,-29.0023 0.53531,-9.62596 1.48281,-19.19831 2.83125,-28.68559 1.34843,-9.4873 3.09811,-18.88936 5.24387,-28.16961 2.14576,-9.28024 4.6879,-18.43853 7.61517,-27.44338 2.92728,-9.00486 6.24119,-17.85404 9.93416,-26.51514 3.69298,-8.66108 7.76345,-17.13315 12.20632,-25.38212 4.44288,-8.24898 9.25744,-16.27588 14.43442,-24.04436 2.29772,-3.44795 5.07729,-7.30619 8.15774,-11.35739 3.08045,-4.05121 6.46274,-8.29658 9.9617,-12.51223 3.49896,-4.21567 7.11624,-8.40166 10.66952,-12.34298 3.55327,-3.94133 7.04055,-7.63778 10.28393,-10.86596 l 12.1898,-12.13003 0.84,-15.82663 c 0.21734,-4.09587 0.59138,-8.12171 1.12093,-12.0836 0.52957,-3.96189 1.21421,-7.85917 2.05735,-11.69321 0.84312,-3.83403 1.84395,-7.60686 3.00199,-11.31915 1.15805,-3.7123 2.47238,-7.36485 3.94668,-10.96153 z"
       style="fill:#393E46;fill-opacity:1;stroke:#000000;stroke-width:0;stroke-miterlimit:4;stroke-dasharray:none;stroke-opacity:1" />
    <path
       inkscape:connector-curvature="0"
       id="path5504"
       d="m 598.63574,104.50977 c -1.50661,-0.11658 -4.47008,0.16658 -8.03105,0.71803 -3.56096,0.55145 -7.71795,1.37008 -11.61418,2.32335 -6.01191,1.47089 -11.91643,3.28151 -17.69255,5.41387 -5.77612,2.13237 -11.42565,4.58695 -16.92414,7.34681 -5.4985,2.75987 -10.84728,5.82536 -16.02631,9.17875 -5.17904,3.35337 -10.18678,6.994 -15.00451,10.90691 -4.81774,3.91291 -9.44422,8.09834 -13.85881,12.53681 -4.4146,4.43846 -8.61677,9.13019 -12.58639,14.06022 -3.96962,4.93004 -7.70724,10.09773 -11.19005,15.48537 -3.4828,5.38764 -6.71284,10.99551 -9.66701,16.80676 -1.68236,3.30946 -3.33824,6.89743 -4.89959,10.57383 -1.56136,3.6764 -3.02787,7.44182 -4.33225,11.10349 -1.30439,3.66165 -2.44584,7.21848 -3.35729,10.48374 -0.91146,3.26527 -1.59214,6.23832 -1.97472,8.72554 l -0.80696,5.24187 17.89085,0.0191 c 6.02795,0.006 11.77694,0.26379 17.27392,0.79173 5.497,0.52797 10.74107,1.32616 15.76191,2.40527 5.02085,1.0791 9.81836,2.44101 14.41789,4.10067 4.59953,1.65966 9.00331,3.61658 13.23637,5.88618 4.23304,2.26961 8.29595,4.85012 12.21733,7.75907 3.92138,2.90894 7.69901,6.14708 11.36355,9.72476 3.66454,3.57768 7.21526,7.49656 10.67778,11.77238 3.46252,4.2758 6.83917,8.90673 10.15449,13.91007 5.69198,8.59004 14.06867,21.25685 18.61518,28.14776 2.51091,3.80564 5.2202,7.54031 8.10267,11.18266 2.88247,3.64234 5.93657,7.19343 9.13821,10.63117 3.20165,3.43773 6.55109,6.76227 10.01954,9.95409 3.46846,3.19183 7.05547,6.24956 10.73837,9.15417 3.6829,2.90461 7.46074,5.65528 11.30572,8.23138 3.84496,2.57609 7.75864,4.97673 11.71333,7.183 3.95467,2.20628 7.94919,4.21934 11.9612,6.01451 4.012,1.79515 8.04062,3.37495 12.05759,4.71768 2.98529,0.99787 5.36979,1.99293 7.04507,2.92671 1.67529,0.93378 2.64281,1.80459 2.78994,2.55268 0.13171,0.66972 -0.13918,1.35326 -0.74361,2.03122 -0.60437,0.67796 -1.54436,1.35106 -2.75139,2.00393 -2.41405,1.30573 -5.89902,2.52745 -9.92314,3.5328 -4.02411,1.00536 -8.58698,1.79496 -13.15374,2.23326 -4.56676,0.43829 -9.13655,0.52648 -13.17852,0.13098 -4.84491,-0.47399 -9.26338,-1.06105 -13.76516,-1.91383 -4.5018,-0.85279 -9.08672,-1.97265 -14.27193,-3.50824 -5.18521,-1.53559 -10.9709,-3.48938 -17.86606,-6.01177 -6.89516,-2.52239 -14.90219,-5.61397 -24.53382,-9.42718 -6.21368,-2.46001 -12.2547,-4.69055 -18.14147,-6.6943 -5.88677,-2.00376 -11.6167,-3.78077 -17.20507,-5.33198 -5.58839,-1.55118 -11.03552,-2.87548 -16.35405,-3.97781 -5.31854,-1.10233 -10.50843,-1.98289 -15.58564,-2.64004 -5.07722,-0.65715 -10.04094,-1.09209 -14.90538,-1.30774 -4.86442,-0.21566 -9.63029,-0.21122 -14.31046,0.0112 -4.68019,0.22214 -9.27651,0.66243 -13.80097,1.31866 -4.52445,0.65624 -8.97681,1.52883 -13.37408,2.61548 -4.74106,1.1716 -9.43883,2.63162 -14.06259,4.36004 -4.62377,1.72842 -9.17474,3.72507 -13.6247,5.96536 -4.44998,2.24028 -8.79911,4.72421 -13.01879,7.43144 -4.21968,2.70722 -8.30921,5.63727 -12.24213,8.76649 -3.93292,3.1292 -7.70778,6.45875 -11.29745,9.96501 -3.58967,3.50625 -6.99486,7.18869 -10.18479,11.02704 -3.18992,3.83836 -6.1649,7.83251 -8.89861,11.95802 -2.73369,4.12552 -5.22618,8.38476 -7.44717,12.7525 -1.20527,2.37023 -2.5241,5.37942 -3.86956,8.76648 -1.34545,3.38707 -2.71735,7.1517 -4.02654,11.0325 -2.61836,7.76162 -4.98884,15.98566 -6.40336,22.58373 -1.2497,5.82933 -2.1044,12.17912 -2.57236,18.85436 -0.46797,6.67524 -0.54832,13.67582 -0.25063,20.81187 0.2977,7.13606 0.97423,14.40823 2.02154,21.61999 1.04731,7.21177 2.46603,14.36543 4.24688,21.2678 1.02625,3.97767 2.42664,8.4478 4.06784,13.09923 1.64121,4.65143 3.52276,9.482 5.51103,14.17489 1.98827,4.69289 4.08253,9.24835 6.14997,13.35039 2.06744,4.10205 4.10877,7.75227 5.9875,10.63117 3.20224,4.90707 8.05792,11.60362 12.25588,17.07704 4.19797,5.47343 7.73886,9.72389 8.30922,9.73568 0.30417,0.007 3.7942,-2.73413 7.75564,-6.0882 3.96143,-3.35407 12.41292,-9.53579 18.78319,-13.73808 l 11.58389,-7.64167 -7.69781,-10.96151 c -2.48072,-3.53297 -4.94826,-7.415 -7.31497,-11.46933 -2.3667,-4.05434 -4.63276,-8.28113 -6.70907,-12.49859 -2.07631,-4.21746 -3.96207,-8.42713 -5.57161,-12.44945 -1.60955,-4.02232 -2.94171,-7.85568 -3.90811,-11.32462 -1.26094,-4.52621 -2.02947,-8.24382 -2.48974,-13.13745 -0.46028,-4.89361 -0.61422,-10.96388 -0.64722,-20.19485 -0.0385,-10.76388 -0.0176,-16.46947 0.5343,-20.93199 0.27598,-2.23127 0.6855,-4.15064 1.28618,-6.23838 0.60068,-2.08774 1.39397,-4.34158 2.43741,-7.24034 1.33348,-3.70448 2.87551,-7.30854 4.61317,-10.79498 1.73766,-3.48645 3.66899,-6.85643 5.78368,-10.0988 2.11469,-3.24235 4.41247,-6.35665 6.87708,-9.32888 2.46458,-2.97224 5.09771,-5.80105 7.88507,-8.4771 2.78736,-2.67604 5.72748,-5.19776 8.81048,-7.55157 3.08301,-2.35381 6.30724,-4.54134 9.65874,-6.54687 3.35151,-2.00554 6.83152,-3.8291 10.4244,-5.4603 3.59287,-1.63118 7.30031,-3.06915 11.10742,-4.29997 3.49817,-1.13093 7.48062,-2.09075 11.77667,-2.86664 4.29604,-0.77589 8.90429,-1.36823 13.65775,-1.76094 4.75346,-0.39271 9.65212,-0.58647 14.52255,-0.56787 4.87041,0.0186 9.71312,0.24907 14.36004,0.70711 4.76332,0.4695 8.86876,0.93091 12.87833,1.49884 4.00958,0.56794 7.92269,1.24183 12.29996,2.1377 8.75454,1.79173 19.36753,4.46881 36.32151,8.9494 9.29928,2.45762 16.51355,4.34357 22.41314,5.78791 5.8996,1.44433 10.48366,2.4492 14.51979,3.14512 4.03614,0.69593 7.52522,1.08169 11.23412,1.29409 3.70889,0.21239 7.63822,0.24923 12.55608,0.24299 5.11318,-0.007 9.45358,-0.12916 13.35756,-0.45048 3.90397,-0.32131 7.37062,-0.84041 10.73836,-1.63536 3.36775,-0.79494 6.63624,-1.8651 10.14072,-3.29255 3.50448,-1.42745 7.24491,-3.21145 11.5591,-5.43026 2.25399,-1.15923 4.60252,-2.57044 6.98999,-4.17437 2.38747,-1.60393 4.81318,-3.40206 7.22408,-5.3347 4.82183,-3.8653 9.58148,-8.27087 13.83677,-12.75523 2.12766,-2.24218 4.13074,-4.50406 5.95169,-6.72707 1.82094,-2.223 3.4596,-4.40717 4.8638,-6.495 1.4042,-2.08784 2.57351,-4.0795 3.45093,-5.91622 0.87741,-1.83671 1.46423,-3.51835 1.70481,-4.98797 0.26802,-1.63729 0.20897,-3.09079 -0.3663,-4.52658 -0.57527,-1.43578 -1.66835,-2.85472 -3.46745,-4.4201 -1.7991,-1.56536 -4.30537,-3.2786 -7.70883,-5.30466 -3.40345,-2.02606 -7.70204,-4.36517 -13.09039,-7.183 -5.60536,-2.93133 -10.91943,-5.874 -15.97123,-8.86204 -5.05178,-2.98803 -9.84141,-6.01934 -14.40411,-9.12414 -4.56269,-3.10479 -8.89724,-6.28481 -13.03531,-9.56641 -4.13807,-3.2816 -8.08138,-6.66498 -11.85931,-10.18342 -3.77791,-3.51846 -7.39106,-7.17076 -10.8733,-10.9861 -3.48226,-3.81534 -6.83185,-7.79394 -10.08289,-11.96622 -3.25105,-4.17227 -6.40369,-8.53998 -9.48799,-13.12924 -3.08431,-4.58926 -6.10108,-9.40073 -9.08314,-14.46702 -3.84893,-6.53906 -7.87733,-12.75701 -12.03005,-18.59226 -4.15271,-5.83525 -8.4291,-11.28776 -12.77642,-16.29349 -4.34732,-5.00573 -8.76507,-9.56474 -13.19781,-13.61522 -4.43275,-4.05049 -8.88247,-7.59339 -13.29145,-10.56292 -2.34714,-1.58083 -5.30218,-3.33286 -8.55434,-5.11082 -3.25215,-1.77795 -6.80075,-3.58128 -10.33625,-5.26098 -3.53552,-1.67971 -7.05646,-3.23501 -10.25365,-4.52113 -3.19717,-1.2861 -6.06928,-2.30224 -8.30646,-2.89941 -2.77911,-0.7418 -4.26137,-1.20972 -4.93817,-1.92747 -0.33839,-0.35888 -0.47556,-0.78018 -0.4737,-1.32958 10e-4,-0.54939 0.14221,-1.22855 0.36079,-2.09948 0.47723,-1.9016 1.46741,-4.54065 2.81747,-7.63074 1.35006,-3.09009 3.06218,-6.6297 4.98224,-10.3254 1.92005,-3.6957 4.04812,-7.54887 6.23535,-11.2673 2.18723,-3.71842 4.43357,-7.30363 6.58513,-10.4619 2.74813,-4.03395 6.27314,-8.51814 10.27567,-13.15382 4.00253,-4.63569 8.48251,-9.42284 13.13171,-14.05478 4.6492,-4.63192 9.46813,-9.10927 14.15624,-13.13198 4.68813,-4.02269 9.24375,-7.58838 13.36307,-10.39638 l 12.29995,-8.38425 z"
       style="fill:#393E46;fill-opacity:1;stroke:#000000;stroke-width:0;stroke-miterlimit:4;stroke-dasharray:none;stroke-opacity:1" />
    <path
       inkscape:connector-curvature="0"
       id="path5502"
       d="m 509.84524,103.09556 c -1.70834,-0.1212 -4.78397,0.006 -8.36155,0.31124 -3.57758,0.30579 -7.65761,0.78814 -11.37732,1.37326 -5.75504,0.90529 -11.53851,2.17255 -17.30422,3.76759 -5.76572,1.59505 -11.51374,3.52015 -17.19405,5.74422 -5.68033,2.22408 -11.29312,4.74555 -16.79196,7.53793 -5.49884,2.79238 -10.88214,5.8542 -16.10342,9.15416 -5.22128,3.29997 -10.28082,6.83795 -15.12845,10.58476 -4.84764,3.74682 -9.48365,7.70222 -13.86155,11.83516 -4.37791,4.13295 -8.49889,8.44431 -12.31098,12.90266 -3.81209,4.45834 -7.3155,9.06418 -10.46571,13.78721 -3.49512,5.24014 -6.5985,10.60435 -9.30346,16.04777 -2.70497,5.44343 -5.01376,10.96638 -6.92389,16.52828 -1.91012,5.5619 -3.41996,11.16205 -4.53055,16.75761 -1.1106,5.59557 -1.81981,11.18589 -2.12619,16.73031 -0.30639,5.54442 -0.21059,11.04337 0.29194,16.45183 0.50252,5.40847 1.41048,10.72628 2.72658,15.91399 1.31611,5.18771 3.04065,10.24558 5.17503,15.12772 2.13437,4.88213 4.67987,9.59032 7.6372,14.08207 l 5.44493,8.27233 1.04932,-13.97832 c 0.28813,-3.84404 0.94203,-8.86728 1.76265,-13.86366 0.82062,-4.99639 1.8082,-9.96591 2.76515,-13.70259 1.07122,-4.18297 2.29466,-8.36512 3.67125,-12.545 1.3766,-4.17989 2.90651,-8.35699 4.58565,-12.52862 1.67912,-4.17162 3.50741,-8.33765 5.48622,-12.49586 1.97882,-4.1582 4.10842,-8.30983 6.38409,-12.44944 2.27566,-4.13961 4.69847,-8.26807 7.26815,-12.38392 2.56968,-4.11586 5.28586,-8.21781 8.14674,-12.30475 2.86085,-4.08695 5.86506,-8.15907 9.01426,-12.21193 3.1492,-4.05286 6.44164,-8.08636 9.87633,-12.09999 5.82708,-6.80925 11.8937,-13.37804 18.12219,-19.63791 6.2285,-6.25986 12.61957,-12.21067 19.09992,-17.79233 6.48036,-5.58165 13.04883,-10.79265 19.63147,-15.56727 6.58263,-4.77461 13.17872,-9.11301 19.71409,-12.95178 l 10.14071,-5.95717 z"
       style="fill:#393E46;fill-opacity:1;stroke:#000000;stroke-width:0;stroke-miterlimit:4;stroke-dasharray:none;stroke-opacity:1" />
  </g>
</svg>
